<?xml version="1.0" standalone="no"?>
<!DOCTYPE svg PUBLIC "-//W3C//DTD SVG 20010904//EN"
 "http://www.w3.org/TR/2001/REC-SVG-20010904/DTD/svg10.dtd">
<svg version="1.0" xmlns="http://www.w3.org/2000/svg"
 width="488.000000pt" height="488.000000pt" viewBox="0 0 488.000000 488.000000"
 preserveAspectRatio="xMidYMid meet">

<g transform="translate(0.000000,488.000000) scale(0.100000,-0.100000)"
fill="#000000" stroke="none">
<path d="M0 2440 l0 -2440 2440 0 2440 0 0 2440 0 2440 -2440 0 -2440 0 0
-2440z m2651 1473 c1 -17 2 -17 6 0 4 16 59 17 969 17 l964 0 0 -33 c0 -34
-42 -77 -794 -812 l-143 -140 26 -36 c14 -20 141 -188 281 -373 140 -186 262
-347 270 -359 8 -12 77 -104 152 -205 106 -139 138 -189 138 -212 l0 -30 -298
0 -298 0 -444 592 c-286 382 -446 603 -448 621 -4 27 17 51 244 278 l249 249
-463 0 -462 0 0 33 c0 17 11 106 25 196 14 91 24 166 22 167 -1 1 -144 -138
-317 -308 -383 -378 -812 -801 -1180 -1162 -151 -148 -365 -359 -475 -468
-177 -175 -204 -198 -233 -198 -30 0 -32 2 -32 38 0 20 22 192 49 382 28 190
73 507 101 705 28 198 53 370 55 383 l5 22 230 0 230 0 0 -32 c0 -18 -9 -89
-19 -158 -11 -68 -19 -126 -18 -127 1 -1 225 221 497 492 l495 493 308 1 c286
1 307 0 308 -16z m366 -735 c-3 -46 -35 -281 -71 -523 -36 -242 -70 -476 -76
-520 -6 -44 -13 -95 -17 -112 l-5 -33 -229 0 -229 0 0 38 c0 50 19 192 91 677
33 226 63 428 65 450 3 22 7 55 10 73 l5 32 231 0 231 0 -6 -82z m-2107 -1678
l0 -40 -55 0 -55 0 0 -180 0 -180 -35 0 -35 0 0 180 0 180 -55 0 -55 0 0 40 0
40 145 0 145 0 0 -40z m170 -50 l0 -90 70 0 70 0 0 90 0 90 40 0 40 0 0 -220
0 -220 -40 0 -40 0 0 90 0 90 -70 0 -70 0 0 -90 0 -90 -35 0 -35 0 0 220 0
220 35 0 35 0 0 -90z m630 50 l0 -40 -110 0 -110 0 0 -50 0 -50 85 0 85 0 0
-40 0 -40 -85 0 -85 0 0 -50 0 -50 110 0 110 0 0 -40 0 -40 -145 0 -145 0 0
220 0 220 145 0 145 0 0 -40z m650 0 l0 -40 -110 0 -110 0 0 -50 0 -50 85 0
85 0 0 -40 0 -40 -85 0 -85 0 0 -90 0 -90 -40 0 -40 0 0 220 0 220 150 0 150
0 0 -40z m150 -105 c0 -109 4 -153 15 -174 24 -48 63 -54 100 -16 24 24 25 28
25 180 l0 155 40 0 40 0 0 -180 c0 -245 -9 -260 -155 -260 -68 0 -77 2 -107
29 l-33 29 -3 191 -3 191 40 0 41 0 0 -145z m580 105 l0 -40 -55 0 -55 0 0
-180 0 -180 -40 0 -40 0 0 180 0 180 -55 0 -55 0 0 40 0 40 150 0 150 0 0 -40z
m140 -105 c0 -111 4 -153 15 -175 27 -52 95 -48 115 6 6 14 10 90 10 170 l0
144 41 0 41 0 -4 -187 c-4 -244 -10 -253 -153 -253 -68 0 -77 2 -107 29 l-33
29 -3 191 -3 191 40 0 41 0 0 -145z m570 130 c41 -21 50 -43 50 -118 0 -50 -5
-70 -20 -90 l-21 -26 21 -62 c11 -34 20 -77 20 -96 0 -32 -1 -33 -40 -33 -22
0 -40 5 -40 10 0 6 -14 47 -31 90 -30 78 -31 80 -65 80 l-34 0 0 -90 0 -90
-40 0 -40 0 0 220 0 220 105 0 c75 0 115 -4 135 -15z m460 -25 l0 -40 -110 0
-110 0 0 -50 0 -50 85 0 85 0 0 -40 0 -40 -85 0 -85 0 0 -50 0 -50 110 0 110
0 0 -40 0 -40 -145 0 -145 0 0 220 0 220 145 0 145 0 0 -40z"/>
<path d="M3640 1410 l0 -50 40 0 c44 0 90 24 90 46 0 27 -42 54 -87 54 l-43 0
0 -50z"/>
</g>
</svg>
